<?xml version="1.0" standalone="yes"?>
<svg xmlns="http://www.w3.org/2000/svg" width="2200" height="557">
<path style="fill:#fefeff; stroke:none;" d="M0 0L0 557L2200 557L2200 0L0 0z"/>
<path style="fill:#135779; stroke:none;" d="M267 18.4244C259.703 19.3824 252.318 19.3027 245 20.2886C226.906 22.726 209.187 27.5522 192 33.635C125.503 57.1691 69.5098 111.538 41.6767 176C10.5821 248.015 14.553 336.201 52.3997 405.004C102.417 495.931 207.096 553.381 311 539.718C341.927 535.652 373.123 527.485 400.91 512.978C479.038 472.192 533.328 392.857 541.83 305C542.594 297.112 542 288.922 542 281C542 271.774 542.748 262.183 541.829 253C534.225 176.951 491.462 105.093 428 62.5193C402.85 45.6474 375.224 33.537 346 25.9753C329.703 21.7584 313.678 20.0527 297 18.9105C287.082 18.2313 276.944 17.1187 267 18.4244z"/>
<path style="fill:#fefeff; stroke:none;" d="M263 53.4244C220.55 59.0145 181.654 71.4871 147 97.4753C115.313 121.238 88.2037 154.11 73.1728 191.015C38.9122 275.133 57.0611 376.336 122.285 440.576C151.262 469.115 185.213 487.585 224 498.559C251.027 506.205 281.089 508.347 309 504.711C345.347 499.976 378.23 487.053 409.015 467.402C429.388 454.397 447.35 436.178 461.87 417C514.06 348.07 521.785 253.221 483.627 176C467.161 142.678 440.247 113.636 410 92.4383C387.722 76.8256 362.266 66.0945 336 59.5262C313.047 53.7865 286.641 50.3112 263 53.4244z"/>
<path style="fill:#135779; stroke:none;" d="M1181 385L1181 77L1154 77C1151.12 77.0013 1146.16 76.1585 1144.6 79.3179C1142.19 84.2206 1144 93.6039 1144 99L1144 146L1144 313L1144 364C1144 368.705 1141.99 379.561 1145.03 383.397C1147.02 385.918 1152.2 385 1155 385L1181 385M1954 385L1954 264L1954 182L1954 112L1954 91C1954 87.6199 1954.65 83.4178 1953.68 80.1481C1952.76 77.0309 1949.75 77.0566 1947 77.0046C1940.01 76.8724 1932.99 76.9856 1926 77C1923.58 77.005 1919.74 76.4355 1918.03 78.6034C1914.99 82.4386 1917 93.2947 1917 98L1917 149L1917 316L1917 363C1917 368.396 1915.19 377.779 1917.6 382.682C1919.16 385.841 1924.12 384.999 1927 385L1954 385M724 325C716.833 329.901 710.521 336.006 704 341.715C699.692 345.488 694.542 348.783 692 354C700.811 361.647 707.751 370.39 717.999 376.525C745.571 393.033 780.914 395.405 812 389.54C866.356 379.285 898.905 318.62 876.076 268C861.402 235.463 817.291 226.718 787 216.401C769.398 210.406 748.956 201.91 743.49 182C737.103 158.738 752.689 134.658 776 129.04C802.793 122.583 830.727 128.329 848 151C860.383 145.227 868.918 131.807 880 124C872.145 106.377 848.318 97.6723 831 93.2693C791.843 83.3138 744.693 91.3549 717.765 123.17C708.866 133.685 702.068 147.043 701.089 161C699.621 181.959 702.27 204.871 715.529 222C728.952 239.342 750.003 248.586 770 256.05C795.556 265.589 831.92 269.731 840.982 300C848.528 325.207 823.091 348.286 801 353.349C781.152 357.897 757.786 354.234 741 342.211C734.448 337.519 729.261 331.022 724 325M266 98.5139C249.692 101.772 233.904 104.229 218 109.735C184.91 121.191 155.736 144.953 135.289 173C92.1832 232.125 90.227 315.388 129.436 377C146.422 403.691 170.201 425.39 198 440.381C235.819 460.776 279.564 464.322 321 456.196C409.883 438.765 471.337 348.834 461.826 260C456.541 210.629 429.773 163.501 390 133.745C372.697 120.8 353.488 112.276 333 105.975C316.498 100.9 299.294 98 282 98C276.747 98 271.174 97.4801 266 98.5139z"/>
<path style="fill:#fefeff; stroke:none;" d="M200 270C200 274.277 201.671 283.122 198.397 286.397C196.084 288.709 191.938 287.83 189 288.305C183.046 289.268 177.337 294.633 177.262 301C177.241 302.723 177.799 304.421 178.438 305.999C180.311 310.626 183.911 314.2 189 314.867C193.687 315.481 199.857 313.552 203.57 317.318C208.327 322.143 208.709 331.94 211.55 338C217.354 350.381 226.279 361.976 237 370.485C266.106 393.587 310.898 390.253 337.996 366.155C344.821 360.086 355.859 350.659 356.892 341C357.338 336.828 357.628 331.149 355.772 327.289C352.263 319.994 341.223 316.562 334 320.179C323.661 325.357 318.163 338.456 308 344.518C286.373 357.418 254.139 342.953 246.663 319.444C244.703 313.281 256.678 315 260 315C270.048 315 282.196 316.859 292 314.606C296.334 313.609 300.362 310.378 301.566 305.999C303.562 298.742 300.638 290.764 293 288.573C288.94 287.407 284.179 288 280 288L255 288C250.325 288 240.95 289.885 239.318 283.941C238.307 280.26 238.014 272.409 242.148 270.603C245.728 269.04 251.171 270 255 270L280 270C284.827 270 290.434 270.373 294.985 268.436C304.373 264.439 304.103 248.885 295.981 243.858C290.168 240.26 280.56 242 274 242C264.866 242 254.923 243.125 246 241C249.294 234.251 252.624 227.473 258.09 222.171C271.4 209.261 292.394 205.827 308 216.939C320.218 225.639 333.555 253.247 351.906 238.442C360.973 231.127 358.824 216.925 353.546 208C343.223 190.543 323.657 178.708 304 174.808C271.276 168.314 238.762 180.307 219.573 208C215.627 213.695 211.86 220.583 209.264 227.015C207.706 230.876 207.015 236.492 204.272 239.682C201.561 242.837 196.696 241.922 193 242.015C186.716 242.172 181.835 244.002 179.059 250.001C175.805 257.031 178.211 266.055 186.004 268.968C190.335 270.586 195.463 270 200 270z"/>
<path style="fill:#135779; stroke:none;" d="M1486 220L1486 201C1486 198.764 1486.47 195.492 1484.97 193.603C1482.98 191.082 1477.8 192 1475 192L1449 192L1449 385L1475 385C1477.8 385 1482.98 385.918 1484.97 383.397C1486.91 380.948 1486 375.91 1486 373L1486 347L1486 307C1486 281.783 1483.48 250.538 1508 234.72C1512.6 231.752 1518.72 229.487 1524 228.09C1536.62 224.752 1546.61 228.434 1559 229L1560 189C1554.63 188.769 1549.37 187.079 1544 187.079C1528.93 187.078 1512.52 193.542 1501.01 203.095C1495.01 208.081 1491.31 214.598 1486 220M1054 265C1022.05 265 984.024 262.569 955 278.623C944.665 284.339 934.409 292.422 928.76 302.999C918.467 322.271 919.783 349.675 933.39 367C940.898 376.559 952.589 382.915 964 386.535C985.86 393.471 1015.91 390.654 1035 377.427C1043.67 371.417 1049.04 362.48 1057 356C1057 365.763 1057.23 375.291 1058 385L1090 385C1090 373.251 1088.3 361.698 1088.01 350C1087.39 324.367 1088 298.641 1088 273C1088 249.68 1089.42 227.223 1071.91 209.039C1064.68 201.534 1055.54 197.379 1046 193.74C1021 184.202 988.437 185.317 964 196.174C955.855 199.793 948.262 203.344 941 208.579C938.641 210.28 934.207 212.627 934.207 216.015C934.207 218.433 936.509 220.393 938.016 222C941.65 225.874 949.787 238.817 956 236.839C959.243 235.806 962.169 232.552 965 230.696C971.991 226.113 979.934 221.337 988 218.974C1010.45 212.397 1040.19 217.968 1050.88 241C1054.42 248.643 1054 256.792 1054 265M1362 265C1324.15 265 1275.9 262.013 1246.09 290.184C1226.46 308.733 1223.46 343.295 1239.61 365C1247.57 375.7 1259.36 382.82 1272 386.561C1294.31 393.163 1323.63 390.582 1343 377.023C1351.46 371.1 1356.58 362.78 1364 356C1364 362.748 1364.65 369.295 1364.96 376C1365.07 378.445 1364.4 382.229 1366.6 383.972C1368.69 385.624 1372.53 384.999 1375 385L1397 385C1397 348.082 1396 311 1396 274C1396 250.194 1397 227.277 1378.99 209.004C1352.71 182.357 1305.73 183.494 1273 195.566C1264.55 198.683 1256.46 203.288 1249 208.345C1246.49 210.047 1241.64 212.538 1241.64 216.09C1241.64 218.444 1243.59 220.39 1245.06 222C1248.79 226.097 1252.85 229.967 1256.71 233.941C1258.5 235.779 1260.22 237.673 1263.01 236.917C1267.3 235.759 1271.4 231.502 1275 229.025C1281.05 224.866 1287.94 221.328 1295 219.21C1317.54 212.449 1347.61 217.917 1358.37 241C1361.97 248.732 1362 256.671 1362 265M1576 192C1580.96 207.363 1588.3 222.045 1594.35 237C1607.59 269.72 1621.61 302.144 1634.5 335C1638.85 346.072 1643.56 357.03 1648.15 368C1650.34 373.223 1653.96 379.345 1654.94 384.91C1656.02 391.088 1649.69 401.18 1647.61 407C1642.88 420.229 1636.77 440.827 1621.91 446.008C1609.36 450.388 1597.52 445.996 1585 445C1583.97 451.995 1582.84 459.019 1581.61 466C1581.07 469.115 1580.14 473.743 1582.03 476.581C1585.46 481.744 1598.45 481.728 1604 482C1626.73 483.114 1648.54 478.885 1662.56 459C1676.02 439.913 1682.91 415.661 1691.08 394C1703.54 360.955 1716.14 327.71 1729.45 295C1737.96 274.09 1745.63 252.86 1754.25 231.985C1759.39 219.548 1767 205.322 1769 192L1742 192C1738.72 192 1733.35 191.017 1730.51 193.028C1727.79 194.963 1727.28 200.045 1726.19 203C1722.75 212.329 1719.19 221.632 1715.86 231C1706.72 256.698 1697.15 282.208 1688.38 308C1684.54 319.278 1678.54 330.057 1677 342C1672.98 338.299 1672 333.023 1670.21 328C1667.8 321.264 1664.84 314.699 1662.32 308C1652.25 281.319 1642.36 254.565 1632 228C1628.76 219.707 1625.9 211.288 1622.64 203C1621.43 199.903 1620.41 195.022 1617.5 193.028C1614.42 190.912 1608.55 192 1605 192L1576 192M2145 356L2145 375C2145 377.469 2144.38 381.311 2146.03 383.397C2147.74 385.564 2151.58 384.995 2154 385C2160.99 385.014 2168.01 385.128 2175 384.995C2177.75 384.943 2180.76 384.969 2181.68 381.852C2183.32 376.34 2182 368.729 2182 363L2182 323L2182 192L2157 192C2154.09 192 2149.05 191.088 2146.6 193.028C2143.93 195.147 2145 201.02 2145 204L2145 235L2145 262C2145 294.001 2148.86 336.33 2113 351.434C2088.54 361.737 2056.67 351.717 2050.04 324C2047.02 311.389 2048 297.859 2048 285L2048 223C2048 214.367 2049.3 204.568 2047.85 196.059C2047.21 192.275 2044.31 192.067 2041 192.005C2034.34 191.879 2027.66 191.997 2021 192C2018.38 192.001 2013.89 191.25 2012.03 193.603C2009.22 197.147 2011 206.68 2011 211L2011 257C2011 278.561 2009.79 300.55 2011.83 322C2012.71 331.242 2013.25 341.393 2017.25 350C2022.61 361.536 2030.35 372.115 2041 379.316C2063.39 394.453 2098.11 392.776 2121 379.826C2131.51 373.883 2137.51 365.016 2145 356z"/>
<path style="fill:#fefeff; stroke:none;" d="M1054 292C1039.38 292 1024.54 291.781 1010 293.17C1001.19 294.012 992.28 296.033 984 299.159C976.283 302.073 968.467 306.179 963.499 313.001C954.918 324.785 958.168 343.746 969.001 352.671C974.9 357.53 982.655 358.67 990 359.729C1013.69 363.144 1040.49 354.217 1049.63 330C1054.32 317.55 1054 305.065 1054 292M1362 292C1347.42 292 1332.42 290.913 1318 293.246C1308.01 294.862 1298.5 296.137 1289 300.001C1281.69 302.977 1273.99 308.223 1269.76 315.039C1263.39 325.308 1265.09 342.57 1274.09 350.674C1280.98 356.885 1288.25 358.224 1297 359.59C1321.96 363.489 1346.32 353.891 1357.21 330C1362.35 318.721 1362 304.166 1362 292z"/>
<path style="fill:#135779; stroke:none;" d="M1824.04 334.478C1809.15 337.613 1800.96 353.835 1804.61 368C1807.59 379.562 1820.86 389.673 1833 387.33C1838.91 386.19 1844.56 384.15 1848.95 379.895C1868.32 361.109 1849.83 329.05 1824.04 334.478z"/>
</svg>
